<?xml version="1.0" ?><!DOCTYPE svg  PUBLIC '-//W3C//DTD SVG 1.1//EN'  'http://www.w3.org/Graphics/SVG/1.1/DTD/svg11.dtd'><svg height="128px" id="Layer_1" style="enable-background:new 0 0 128 128;" version="1.1" viewBox="0 0 128 128" width="128px" xml:space="preserve" xmlns="http://www.w3.org/2000/svg" xmlns:xlink="http://www.w3.org/1999/xlink"><style type="text/css">
<![CDATA[
	.st0{fill-rule:evenodd;clip-rule:evenodd;}
]]>
</style><path d="M108.131,59.644c6.408-0.529,10.755-3.443,12.43-7.396c-2.314,1.421-9.491,2.969-13.454,1.492  c-0.194-0.93-0.41-1.815-0.623-2.613c-3.02-11.091-13.36-20.023-24.195-18.945c0.878-0.354,1.768-0.684,2.653-0.979  c1.191-0.428,8.188-1.568,7.088-4.036c-0.931-2.171-9.479,1.642-11.087,2.142c2.124-0.798,5.639-2.173,6.014-4.615  c-3.257,0.445-6.451,1.986-8.919,4.225c0.891-0.961,1.567-2.13,1.71-3.389c-8.686,5.546-13.757,16.729-17.86,27.577  c-3.222-3.122-6.079-5.583-8.644-6.948c-7.188-3.857-15.783-7.879-29.276-12.888c-0.414,4.464,2.207,10.401,9.761,14.348  c-1.637-0.219-4.627,0.271-7.023,0.843c0.977,5.115,4.159,9.328,12.782,11.365c-3.94,0.26-5.977,1.156-7.82,3.089  c1.791,3.557,6.171,7.743,14.045,6.883c-8.755,3.774-3.568,10.766,3.557,9.722C37.112,92.076,17.945,91.154,6.941,80.653  c28.734,39.153,91.195,23.154,100.501-14.558c6.974,0.058,11.074-2.416,13.615-5.143C117.041,61.633,111.218,60.93,108.131,59.644z"/></svg>